<?xml version="1.0" encoding="utf-8"?>
<!-- Generator: Adobe Illustrator 16.0.0, SVG Export Plug-In . SVG Version: 6.00 Build 0)  -->
<!DOCTYPE svg PUBLIC "-//W3C//DTD SVG 1.1//EN" "http://www.w3.org/Graphics/SVG/1.1/DTD/svg11.dtd">
<svg version="1.1" id="Ebene_1" xmlns="http://www.w3.org/2000/svg" xmlns:xlink="http://www.w3.org/1999/xlink" x="0px" y="0px"
	 width="257.964px" height="54.17px" viewBox="0 0 257.964 54.17" enable-background="new 0 0 257.964 54.17" xml:space="preserve">
<g>
	<path fill="#d63a4a" d="M73.776,22.594h-4.217V20.46h11.189v2.134h-4.417v13.322h-2.556V22.594z M85.559,20.46h2.978l5.558,15.457
		h-2.829l-1.19-3.597h-6.376l-1.24,3.597h-2.63L85.559,20.46z M89.405,30.21l-1.488-4.466c-0.348-1.042-0.77-2.307-0.943-3.052
		h-0.049c-0.198,0.745-0.62,2.01-0.967,3.052l-1.563,4.466H89.405z M92.951,20.46h2.828l3.077,9.552
		c0.373,1.116,0.794,2.63,0.968,3.349h0.05c0.174-0.719,0.595-2.258,0.967-3.349l3.151-9.552h2.629l-5.482,15.457h-2.804
		L92.951,20.46z M107.314,28.201c0-4.217,2.258-7.938,7.046-7.938c4.789,0,7.046,3.498,7.046,7.914c0,4.217-2.258,7.938-7.046,7.938
		C109.572,36.115,107.314,32.592,107.314,28.201z M118.677,28.176c0-3.498-1.39-5.781-4.317-5.781s-4.267,2.308-4.267,5.805
		c0,3.499,1.339,5.78,4.267,5.78S118.677,31.674,118.677,28.176z M124.133,20.46h2.58v13.347h5.879v2.109h-8.459V20.46z
		 M134.948,20.46h2.58v15.457h-2.58V20.46z M140.902,20.46h2.704l5.93,9.478c0.446,0.719,0.968,1.687,1.315,2.431h0.073
		c-0.024-0.694-0.073-1.439-0.073-2.208V20.46h2.331v15.457h-2.754l-5.903-9.477c-0.472-0.745-0.943-1.613-1.29-2.356h-0.051
		c0,0.694,0.051,1.314,0.051,2.133v9.7h-2.333V20.46z M155.934,28.201c0-4.217,2.258-7.938,7.046-7.938s7.046,3.498,7.046,7.914
		c0,4.217-2.258,7.938-7.046,7.938S155.934,32.592,155.934,28.201z M167.297,28.176c0-3.498-1.39-5.781-4.317-5.781
		s-4.267,2.308-4.267,5.805c0,3.499,1.339,5.78,4.267,5.78S167.297,31.674,167.297,28.176z M178.88,20.46h3.226l2.68,9.701
		c0.272,1.018,0.595,2.481,0.744,3.548h0.024c0.199-1.066,0.521-2.53,0.77-3.498l2.629-9.75h3.226l2.059,15.457h-2.455l-1.191-9.477
		c-0.124-1.067-0.224-2.308-0.298-3.15h-0.05c-0.148,0.818-0.371,2.034-0.645,3.026l-2.68,9.602h-2.902l-2.655-9.65
		c-0.272-0.968-0.57-2.308-0.693-2.977h-0.05c-0.051,0.694-0.124,2.208-0.273,3.299l-1.141,9.328h-2.333L178.88,20.46z
		 M201.107,20.46h2.978l5.558,15.457h-2.829l-1.19-3.597h-6.376l-1.24,3.597h-2.631L201.107,20.46z M204.953,30.21l-1.488-4.466
		c-0.348-1.042-0.77-2.307-0.942-3.052h-0.05c-0.199,0.745-0.62,2.01-0.968,3.052l-1.563,4.466H204.953z M210.26,28.399
		c0-4.44,2.381-8.137,7.666-8.137c1.96,0,3.076,0.396,3.944,0.769v2.233c-0.992-0.497-2.258-0.869-3.82-0.869
		c-3.448,0-5.036,2.308-5.036,6.003c0,3.697,1.885,5.607,5.011,5.607c0.943,0,1.563-0.149,2.184-0.348v-3.846h-2.63v-1.959h5.086
		v7.367c-1.19,0.423-2.58,0.894-4.862,0.894C213.064,36.115,210.26,33.163,210.26,28.399z M226.086,20.46h2.58v15.457h-2.58V20.46z
		 M231.469,28.399c0-4.515,2.356-8.137,7.22-8.137c1.736,0,2.952,0.347,3.647,0.669v2.308c-0.744-0.447-1.861-0.794-3.425-0.794
		c-3.125,0-4.688,2.208-4.688,5.954c0,3.449,1.787,5.508,4.888,5.508c1.464,0,2.58-0.347,3.449-0.843v2.331
		c-1.043,0.472-2.233,0.72-3.846,0.72C234,36.115,231.469,32.89,231.469,28.399z M243.873,28.201c0-4.217,2.258-7.938,7.046-7.938
		s7.046,3.498,7.046,7.914c0,4.217-2.258,7.938-7.046,7.938S243.873,32.592,243.873,28.201z M255.236,28.176
		c0-3.498-1.39-5.781-4.317-5.781s-4.267,2.308-4.267,5.805c0,3.499,1.339,5.78,4.267,5.78S255.236,31.674,255.236,28.176z"/>
	<path fill="#d63a4a" d="M73.532,48.929c0-1.935,1.01-3.487,3.051-3.487c0.723,0,1.244,0.148,1.52,0.277v0.871
		c-0.308-0.191-0.776-0.34-1.446-0.34c-1.424,0-2.115,1.021-2.115,2.679c0,1.541,0.797,2.498,2.211,2.498
		c0.616,0,1.095-0.148,1.467-0.351v0.861c-0.457,0.202-0.989,0.298-1.627,0.298C74.616,52.236,73.532,50.875,73.532,48.929z
		 M79.591,45.4c0-0.33,0.266-0.596,0.606-0.596c0.329,0,0.606,0.266,0.606,0.596c0,0.329-0.277,0.595-0.606,0.595
		C79.857,45.995,79.591,45.729,79.591,45.4z M79.74,46.962h0.915v5.188H79.74V46.962z M82.44,51.895v-6.974h0.914v2.456
		c0.181-0.214,0.638-0.5,1.254-0.5c1.521,0,2.147,1.169,2.147,2.646c0,1.5-0.904,2.712-2.541,2.712
		C83.535,52.236,82.887,52.076,82.44,51.895z M85.768,49.556c0-1.063-0.33-1.902-1.403-1.902c-0.394,0-0.776,0.138-1.01,0.329v3.392
		c0.245,0.074,0.574,0.117,0.893,0.117C85.321,51.492,85.768,50.63,85.768,49.556z M87.671,49.567c0-1.403,0.712-2.689,2.317-2.689
		c1.605,0,2.307,1.18,2.307,2.689c0,1.393-0.723,2.669-2.317,2.669S87.671,51.066,87.671,49.567z M91.35,49.567
		c0-0.957-0.266-1.967-1.371-1.967c-1.106,0-1.351,1.01-1.351,1.967c0,0.946,0.255,1.945,1.361,1.945S91.35,50.513,91.35,49.567z
		 M95.9,51.948v-0.754c0.33,0.148,0.936,0.318,1.414,0.318c0.712,0,1.084-0.244,1.084-0.786c0-0.5-0.34-0.617-1.062-0.872
		c-0.851-0.287-1.404-0.691-1.404-1.51c0-1.01,0.723-1.467,1.797-1.467c0.542,0,1.031,0.128,1.275,0.234v0.766
		C98.749,47.76,98.26,47.6,97.76,47.6c-0.638,0-0.946,0.244-0.946,0.67c0,0.415,0.276,0.585,0.936,0.808
		c0.723,0.234,1.552,0.563,1.552,1.595c0,0.968-0.744,1.563-1.85,1.563C96.888,52.236,96.272,52.128,95.9,51.948z M103.203,51.672
		c-0.245,0.287-0.765,0.563-1.36,0.563c-0.978,0-1.616-0.563-1.616-1.446c0-1.053,0.882-1.595,2.307-1.595
		c0.17,0,0.404,0.011,0.553,0.021v-0.479c0-0.809-0.319-1.116-1.117-1.116c-0.542,0-0.978,0.17-1.275,0.308v-0.766
		c0.351-0.148,0.861-0.286,1.435-0.286c1.117,0,1.872,0.479,1.872,1.658v2.52c0,0.34,0.159,0.446,0.404,0.446
		c0.053,0,0.128-0.01,0.191-0.021v0.66c-0.117,0.042-0.277,0.096-0.563,0.096C103.618,52.236,103.32,52.023,103.203,51.672z
		 M103.086,51.14v-1.307c-0.096-0.012-0.298-0.022-0.436-0.022c-0.957,0-1.478,0.267-1.478,0.894c0,0.521,0.33,0.808,0.915,0.808
		C102.512,51.512,102.874,51.353,103.086,51.14z M105.733,44.921h0.915v7.229h-0.915V44.921z M107.71,46.962h0.958l1.083,3.37
		c0.085,0.276,0.17,0.605,0.245,0.861h0.021c0.085-0.266,0.17-0.596,0.255-0.872l1.063-3.359h0.915l-1.787,5.188h-0.978
		L107.71,46.962z M115.918,51.672c-0.245,0.287-0.765,0.563-1.361,0.563c-0.978,0-1.616-0.563-1.616-1.446
		c0-1.053,0.882-1.595,2.307-1.595c0.17,0,0.404,0.011,0.553,0.021v-0.479c0-0.809-0.319-1.116-1.117-1.116
		c-0.542,0-0.978,0.17-1.275,0.308v-0.766c0.351-0.148,0.861-0.286,1.435-0.286c1.117,0,1.872,0.479,1.872,1.658v2.52
		c0,0.34,0.159,0.446,0.404,0.446c0.053,0,0.128-0.01,0.191-0.021v0.66c-0.117,0.042-0.277,0.096-0.563,0.096
		C116.333,52.236,116.035,52.023,115.918,51.672z M115.801,51.14v-1.307c-0.096-0.012-0.298-0.022-0.436-0.022
		c-0.957,0-1.478,0.267-1.478,0.894c0,0.521,0.33,0.808,0.915,0.808C115.227,51.512,115.588,51.353,115.801,51.14z M118.586,50.779
		v-3.125h-0.712v-0.691h0.712l0.169-1.382h0.734v1.382h1.19v0.691h-1.19v2.997c0,0.585,0.212,0.829,0.712,0.829
		c0.255,0,0.5-0.063,0.648-0.127v0.744c-0.17,0.053-0.478,0.139-0.851,0.139C119.054,52.236,118.586,51.842,118.586,50.779z
		 M121.605,49.567c0-1.403,0.712-2.689,2.317-2.689s2.307,1.18,2.307,2.689c0,1.393-0.722,2.669-2.317,2.669
		S121.605,51.066,121.605,49.567z M125.284,49.567c0-0.957-0.266-1.967-1.371-1.967c-1.106,0-1.351,1.01-1.351,1.967
		c0,0.946,0.255,1.945,1.361,1.945C125.028,51.512,125.284,50.513,125.284,49.567z M129.982,48.875h4.507v0.733h-4.507V48.875z
		 M138.244,49.652c0-1.53,0.765-2.774,2.37-2.774c0.638,0,1.01,0.128,1.275,0.255v0.745c-0.287-0.15-0.67-0.267-1.18-0.267
		c-1.095,0-1.52,0.776-1.52,2.041c0,1.233,0.584,1.85,1.604,1.85c0.563,0,0.903-0.117,1.202-0.275v0.733
		c-0.319,0.159-0.745,0.276-1.341,0.276C139.136,52.236,138.244,51.247,138.244,49.652z M143.176,45.4
		c0-0.33,0.266-0.596,0.605-0.596c0.329,0,0.606,0.266,0.606,0.596c0,0.329-0.277,0.595-0.606,0.595
		C143.442,45.995,143.176,45.729,143.176,45.4z M143.325,46.962h0.915v5.188h-0.915V46.962z M146.025,51.895v-6.974h0.914v2.456
		c0.181-0.214,0.638-0.5,1.255-0.5c1.521,0,2.147,1.169,2.147,2.646c0,1.5-0.904,2.712-2.541,2.712
		C147.12,52.236,146.471,52.076,146.025,51.895z M149.352,49.556c0-1.063-0.329-1.902-1.402-1.902c-0.394,0-0.776,0.138-1.011,0.329
		v3.392c0.245,0.074,0.574,0.117,0.894,0.117C148.906,51.492,149.352,50.63,149.352,49.556z M151.256,49.567
		c0-1.403,0.712-2.689,2.317-2.689s2.307,1.18,2.307,2.689c0,1.393-0.723,2.669-2.317,2.669S151.256,51.066,151.256,49.567z
		 M154.934,49.567c0-0.957-0.266-1.967-1.371-1.967s-1.35,1.01-1.35,1.967c0,0.946,0.255,1.945,1.36,1.945
		S154.934,50.513,154.934,49.567z M159.474,49.588c0-1.51,0.914-2.711,2.393-2.711c0.488,0,0.86,0.138,1.01,0.213v-2.169h0.914
		v7.229h-0.914v-0.414c-0.202,0.233-0.66,0.5-1.255,0.5C160.208,52.236,159.474,51.214,159.474,49.588z M162.876,51.119v-3.306
		c-0.192-0.086-0.5-0.191-0.883-0.191c-1.042,0-1.553,0.755-1.553,1.935c0,1.053,0.352,1.914,1.426,1.914
		C162.27,51.47,162.642,51.342,162.876,51.119z M165.098,49.567c0-1.403,0.712-2.689,2.317-2.689c1.604,0,2.307,1.18,2.307,2.689
		c0,1.393-0.723,2.669-2.317,2.669S165.098,51.066,165.098,49.567z M168.776,49.567c0-0.957-0.266-1.967-1.371-1.967
		c-1.106,0-1.351,1.01-1.351,1.967c0,0.946,0.256,1.945,1.361,1.945S168.776,50.513,168.776,49.567z M171.03,46.962h0.904v0.415
		c0.254-0.192,0.765-0.5,1.435-0.5c1.254,0,1.69,0.786,1.69,1.839v3.434h-0.915v-3.284c0-0.776-0.223-1.233-1.073-1.233
		c-0.457,0-0.861,0.191-1.127,0.372v4.146h-0.914V46.962z M179.312,51.672c-0.245,0.287-0.766,0.563-1.361,0.563
		c-0.978,0-1.616-0.563-1.616-1.446c0-1.053,0.883-1.595,2.308-1.595c0.17,0,0.404,0.011,0.553,0.021v-0.479
		c0-0.809-0.319-1.116-1.116-1.116c-0.542,0-0.979,0.17-1.275,0.308v-0.766c0.351-0.148,0.86-0.286,1.435-0.286
		c1.116,0,1.871,0.479,1.871,1.658v2.52c0,0.34,0.159,0.446,0.403,0.446c0.054,0,0.129-0.01,0.192-0.021v0.66
		c-0.117,0.042-0.277,0.096-0.563,0.096C179.726,52.236,179.429,52.023,179.312,51.672z M179.195,51.14v-1.307
		c-0.096-0.012-0.298-0.022-0.437-0.022c-0.956,0-1.478,0.267-1.478,0.894c0,0.521,0.33,0.808,0.915,0.808
		C178.621,51.512,178.982,51.353,179.195,51.14z M181.98,50.779v-3.125h-0.712v-0.691h0.712l0.17-1.382h0.733v1.382h1.19v0.691
		h-1.19v2.997c0,0.585,0.213,0.829,0.712,0.829c0.256,0,0.5-0.063,0.648-0.127v0.744c-0.17,0.053-0.478,0.139-0.851,0.139
		C182.448,52.236,181.98,51.842,181.98,50.779z M185,49.567c0-1.403,0.712-2.689,2.317-2.689c1.604,0,2.307,1.18,2.307,2.689
		c0,1.393-0.723,2.669-2.317,2.669S185,51.066,185,49.567z M188.677,49.567c0-0.957-0.266-1.967-1.371-1.967
		c-1.106,0-1.351,1.01-1.351,1.967c0,0.946,0.256,1.945,1.361,1.945S188.677,50.513,188.677,49.567z"/>
	<path fill="#d63a4a" d="M76.329,0l0.002,3.299c-24.708,0-35.367,2.423-35.367,17.208h0.001c0,0-0.026,17.458,0,18.789
		c0.114,5.845,1.553,8.354,4.729,9.407c1.293,0.428,6.159,0.615,8.055,0.688l0,2.844H22.578h0.002l0.001-2.844
		c1.896-0.073,6.762-0.261,8.055-0.688c3.176-1.054,4.616-3.562,4.73-9.407c0.026-1.33,0-18.789,0-18.789h0
		C35.367,5.723,24.708,3.299,0,3.299L0.002,0H76.329z"/>
</g>
</svg>
